# xmcd CD database file
#
# Track frame offsets:
#	150
#	19451
#	34632
#	48702
#	66472
#	82183
#	97348
#	113149
#	133684
#	156084
#	168503
#	190875
#	205436
#	220311
#
# Disc length: 3097 seconds
#
# Revision: 0
# Processed by: cddbd v1.5.1PL0 Copyright (c) Steve Scherf et al.
# Submitted via: CDex 1.50beta10
#
DISCID=db0c170e
DTITLE=Peter's Deal - Frieds
DYEAR=1999
DGENRE=Blues
TTITLE0=Friends
TTITLE1=A Good Way To Stay
TTITLE2=Springtime
TTITLE3=Wild East Man
TTITLE4=Reason
TTITLE5=Tina
TTITLE6=I See The Light
TTITLE7=Walking Man
TTITLE8=At The Station
TTITLE9=Look At Me
TTITLE10=I Play The Musik
TTITLE11=Bad Feeling
TTITLE12=My Way
TTITLE13=Wish You Were Here
EXTD=YEAR: 1999
EXTT0=
EXTT1=
EXTT2=
EXTT3=
EXTT4=
EXTT5=
EXTT6=
EXTT7=
EXTT8=
EXTT9=
EXTT10=
EXTT11=
EXTT12=
EXTT13=
PLAYORDER=
